<?xml version="1.0" standalone="no"?>
<!DOCTYPE svg PUBLIC "-//W3C//DTD SVG 20010904//EN"
 "http://www.w3.org/TR/2001/REC-SVG-20010904/DTD/svg10.dtd">
<svg version="1.0" xmlns="http://www.w3.org/2000/svg"
 width="384.000000pt" height="384.000000pt" viewBox="0 0 384.000000 384.000000"
 preserveAspectRatio="xMidYMid meet">
<metadata>
Created by potrace 1.11, written by Peter Selinger 2001-2013
</metadata>
<g transform="translate(0.000000,384.000000) scale(0.100000,-0.100000)"
fill="#000000" stroke="none">
<path d="M2094 2662 c-79 -37 -110 -108 -78 -178 10 -21 20 -42 22 -47 2 -4
-9 -2 -25 5 -16 6 -78 12 -143 12 -95 0 -125 -4 -175 -22 -125 -47 -238 -144
-298 -260 -67 -127 -82 -244 -50 -388 l17 -77 -28 -23 c-33 -29 -65 -30 -141
-4 -32 11 -72 20 -89 20 -101 -1 -224 -134 -157 -170 26 -13 46 -5 59 26 14
29 68 64 99 64 12 0 45 -9 73 -20 70 -28 122 -26 182 7 49 27 50 27 61 8 22
-41 112 -127 166 -159 104 -63 168 -79 336 -81 203 -4 253 1 260 26 10 31 -13
49 -61 49 -24 0 -44 2 -44 4 0 3 16 31 35 63 49 81 49 143 0 240 -42 85 -78
122 -103 107 -28 -18 -25 -40 17 -110 70 -115 65 -158 -25 -255 -46 -49 -47
-49 -110 -49 -233 0 -428 153 -475 371 -16 73 -6 192 21 262 48 127 174 246
298 284 36 11 89 17 144 17 80 -1 94 -4 161 -37 70 -35 147 -102 188 -166 15
-23 18 -24 47 -12 18 8 32 15 32 17 0 20 -123 194 -175 248 -56 59 -66 74 -63
100 4 36 55 76 99 76 27 0 33 -9 92 -127 132 -264 330 -704 321 -712 -23 -21
-219 -101 -247 -101 -56 0 -77 -10 -77 -36 0 -38 39 -58 89 -44 38 10 220 89
303 131 l36 19 -122 267 c-68 148 -148 318 -178 378 -30 61 -67 140 -83 177
-15 37 -38 77 -51 89 -33 31 -106 36 -160 11z"/>
<path d="M2270 1921 c-23 -45 -2 -81 48 -81 22 0 52 30 52 53 0 43 -79 66
-100 28z m68 -27 c3 -22 -21 -39 -39 -28 -11 6 -12 38 -2 48 13 13 38 1 41
-20z"/>
</g>
</svg>
